<svg xmlns="http://www.w3.org/2000/svg" viewBox="0 0 280 64" width="280" height="64" fill="none">
  
  <defs>
    <radialGradient id="hcGlowL" cx="50%" cy="50%" r="50%">
      <stop offset="0%" stop-color="#6FE3F5" stop-opacity="0.55"></stop>
      <stop offset="60%" stop-color="#2151F5" stop-opacity="0.15"></stop>
      <stop offset="100%" stop-color="#2151F5" stop-opacity="0"></stop>
    </radialGradient>
  </defs>

  <g transform="translate(0,0)">
    <rect x="3" y="3" width="58" height="58" rx="6" stroke="#2151F5" stroke-width="1.5" opacity="0.7"></rect>
    <g fill="#2151F5" opacity="0.35">
      <circle cx="16" cy="16" r="1.6"></circle>
      <circle cx="32" cy="16" r="1.6"></circle>
      <circle cx="48" cy="16" r="1.6"></circle>
      <circle cx="16" cy="32" r="1.6"></circle>
      <circle cx="48" cy="32" r="1.6"></circle>
      <circle cx="16" cy="48" r="1.6"></circle>
      <circle cx="32" cy="48" r="1.6"></circle>
      <circle cx="48" cy="48" r="1.6"></circle>
    </g>
    <circle cx="32" cy="32" r="14" fill="url(#hcGlowL)"></circle>
    <rect x="12" y="12" width="8" height="8" rx="1.5" fill="#2151F5"></rect>
    <rect x="44" y="44" width="8" height="8" rx="1.5" fill="#2151F5"></rect>
    <path d="M20 20 L32 32 L44 44" stroke="#1A40C9" stroke-width="1.75" stroke-linecap="round" stroke-linejoin="round"></path>
    <circle cx="32" cy="32" r="3.4" fill="#FFFFFF" stroke="#1A40C9" stroke-width="1.5"></circle>
    <circle cx="32" cy="32" r="1.2" fill="#1A40C9"></circle>
  </g>

  <text x="80" y="41" font-family="Inter, &#39;Noto Sans TC&#39;, system-ui, sans-serif" font-size="26" font-weight="600" letter-spacing="-0.5" fill="#0B1020">HireCook</text>
</svg>